<?xml version="1.0" encoding="utf-8"?>
<!-- Generator: Adobe Illustrator 22.1.0, SVG Export Plug-In . SVG Version: 6.00 Build 0)  -->
<svg version="1.1" id="Layer_1" xmlns="http://www.w3.org/2000/svg" xmlns:xlink="http://www.w3.org/1999/xlink" x="0px" y="0px"
	 viewBox="0 0 101 20" style="enable-background:new 0 0 101 20;" xml:space="preserve">
<style type="text/css">
	.st0{fill:#FFFFFF;}
</style>
<g>
	<path class="st0" d="M4,17.2H2.1V3.6H4V17.2z"/>
	<path class="st0" d="M8.8,7.1l0.1,1.5c0.3-0.5,0.8-1,1.3-1.2c0.5-0.3,1.1-0.4,1.7-0.4c1.1,0,1.9,0.3,2.5,1c0.6,0.6,0.9,1.6,0.9,3
		v6.4h-1.8v-6.4c0-0.9-0.2-1.5-0.5-1.9c-0.4-0.4-0.9-0.6-1.6-0.6c-0.5,0-1,0.1-1.4,0.4s-0.7,0.6-1,1v7.4H7.1V7.1H8.8z"/>
	<path class="st0" d="M23.9,14.5c0-0.4-0.2-0.7-0.5-1c-0.3-0.3-0.9-0.5-1.8-0.7c-1.2-0.3-2.2-0.6-2.8-1.1S18,10.7,18,9.9
		c0-0.8,0.3-1.5,1-2.1c0.7-0.6,1.6-0.9,2.7-0.9c1.2,0,2.1,0.3,2.8,0.9c0.7,0.6,1,1.3,1,2.2l0,0.1h-1.8c0-0.4-0.2-0.8-0.6-1.2
		c-0.4-0.4-0.9-0.5-1.5-0.5c-0.7,0-1.1,0.1-1.5,0.4c-0.3,0.3-0.5,0.6-0.5,1c0,0.4,0.1,0.7,0.4,0.9c0.3,0.2,0.9,0.4,1.7,0.6
		c1.3,0.3,2.2,0.6,2.9,1.1c0.6,0.5,0.9,1.1,0.9,1.9c0,0.9-0.4,1.6-1.1,2.2s-1.7,0.8-2.9,0.8c-1.3,0-2.3-0.3-3.1-1
		c-0.7-0.7-1.1-1.4-1.1-2.3l0-0.1h1.8c0,0.7,0.3,1.1,0.7,1.4c0.5,0.3,1,0.5,1.6,0.5c0.7,0,1.2-0.1,1.5-0.4
		C23.7,15.3,23.9,14.9,23.9,14.5z"/>
	<path class="st0" d="M32.2,15.9c0.6,0,1.1-0.2,1.6-0.6c0.5-0.4,0.7-0.8,0.7-1.4h1.7l0,0.1c0,0.9-0.4,1.7-1.2,2.3
		c-0.8,0.7-1.7,1-2.8,1c-1.5,0-2.6-0.5-3.4-1.4s-1.2-2.2-1.2-3.6v-0.4c0-1.4,0.4-2.6,1.2-3.6s1.9-1.4,3.4-1.4c1.2,0,2.2,0.3,2.9,1
		c0.8,0.7,1.1,1.6,1.1,2.6l0,0.1h-1.7c0-0.6-0.2-1.1-0.7-1.6c-0.4-0.4-1-0.7-1.7-0.7c-1,0-1.7,0.3-2.1,1c-0.4,0.7-0.6,1.5-0.6,2.6
		v0.4c0,1,0.2,1.9,0.6,2.6C30.5,15.6,31.2,15.9,32.2,15.9z"/>
	<path class="st0" d="M43,8.7l-0.9-0.1c-0.5,0-0.9,0.1-1.2,0.3s-0.6,0.6-0.8,1v7.2h-1.8V7.1h1.6l0.2,1.5c0.3-0.5,0.6-0.9,1.1-1.2
		s0.9-0.4,1.5-0.4c0.1,0,0.3,0,0.4,0s0.2,0,0.3,0.1L43,8.7z"/>
	<path class="st0" d="M46.8,4.5h-1.8V2.6h1.8V4.5z M46.8,17.2h-1.8V7.1h1.8V17.2z"/>
	<path class="st0" d="M58.3,12.5c0,1.5-0.4,2.6-1.1,3.5c-0.7,0.9-1.7,1.3-2.9,1.3c-0.7,0-1.2-0.1-1.7-0.4c-0.5-0.3-0.9-0.6-1.2-1.1
		l-0.2,1.3h-1.5V2.6h1.8v5.7c0.3-0.4,0.7-0.8,1.2-1c0.5-0.2,1-0.4,1.7-0.4c1.2,0,2.2,0.5,2.9,1.5c0.7,1,1,2.3,1,3.9V12.5z
		 M56.4,12.3c0-1.2-0.2-2.1-0.6-2.8s-1.1-1.1-2-1.1c-0.6,0-1,0.1-1.4,0.4c-0.4,0.3-0.7,0.7-0.9,1.1v4.4c0.2,0.5,0.5,0.9,0.9,1.2
		s0.9,0.4,1.5,0.4c0.9,0,1.5-0.3,1.9-0.9s0.6-1.4,0.6-2.5V12.3z"/>
	<path class="st0" d="M64.7,17.4c-1.4,0-2.5-0.5-3.4-1.4c-0.8-0.9-1.2-2.2-1.2-3.7v-0.4c0-1.4,0.4-2.6,1.3-3.6c0.9-1,1.9-1.4,3-1.4
		c1.4,0,2.4,0.4,3.1,1.2c0.7,0.8,1,1.9,1,3.3v1.2H62l0,0c0,1,0.3,1.8,0.7,2.4c0.5,0.6,1.1,0.9,2,0.9c0.6,0,1.2-0.1,1.6-0.3
		c0.5-0.2,0.9-0.4,1.2-0.7l0.7,1.2c-0.4,0.4-0.8,0.7-1.4,0.9C66.3,17.3,65.6,17.4,64.7,17.4z M64.4,8.3c-0.6,0-1.1,0.3-1.6,0.8
		c-0.4,0.5-0.7,1.2-0.8,2l0,0h4.7v-0.2c0-0.7-0.2-1.3-0.6-1.8C65.8,8.6,65.2,8.3,64.4,8.3z"/>
	<path class="st0" d="M80,5.7h-3.9v11.5h-2.7V5.7h-3.8V3.6H80V5.7z"/>
	<path class="st0" d="M84.8,17.4c-1.5,0-2.6-0.5-3.5-1.4c-0.9-0.9-1.3-2.1-1.3-3.6v-0.4c0-1.5,0.4-2.7,1.2-3.7
		c0.8-1,1.9-1.5,3.3-1.5c1.4,0,2.4,0.4,3.2,1.2c0.8,0.8,1.1,1.9,1.1,3.3V13h-6l0,0.1c0,0.7,0.3,1.2,0.7,1.6c0.4,0.4,0.9,0.6,1.6,0.6
		c0.6,0,1.1-0.1,1.5-0.2c0.4-0.1,0.8-0.3,1.3-0.6l0.7,1.7c-0.4,0.3-1,0.6-1.6,0.8C86.4,17.3,85.6,17.4,84.8,17.4z M84.6,9
		c-0.5,0-0.9,0.2-1.2,0.6c-0.3,0.4-0.5,0.9-0.5,1.5l0,0h3.4v-0.2c0-0.6-0.1-1-0.4-1.4C85.5,9.2,85.1,9,84.6,9z"/>
	<path class="st0" d="M94.7,15.3c0.5,0,0.9-0.1,1.2-0.4c0.3-0.3,0.4-0.7,0.4-1.1h2.5l0,0.1c0,1-0.4,1.9-1.2,2.6s-1.8,1-3,1
		c-1.5,0-2.7-0.5-3.5-1.4c-0.8-1-1.2-2.2-1.2-3.7V12c0-1.5,0.4-2.7,1.2-3.7c0.8-1,2-1.4,3.5-1.4c1.2,0,2.3,0.4,3,1.1
		c0.8,0.7,1.1,1.6,1.1,2.8l0,0.1h-2.5c0-0.5-0.1-1-0.4-1.3C95.6,9.2,95.2,9,94.7,9c-0.7,0-1.2,0.3-1.5,0.8c-0.3,0.6-0.4,1.3-0.4,2.2
		v0.3c0,0.9,0.1,1.6,0.4,2.2C93.5,15,94,15.3,94.7,15.3z"/>
</g>
</svg>
